<svg xmlns="http://www.w3.org/2000/svg" viewBox="0 0 704 242">
<rect x="0" y="0" width="704" height="242" rx="14" fill="#0d1117"/>
<text x="34" y="16" font-family="Courier New, monospace" font-size="11" fill="#8b949e">contributions (last 53 weeks)</text>
<rect x="34" y="24" width="10" height="10" rx="2" fill="#ebedf0"/>
<rect x="34" y="36" width="10" height="10" rx="2" fill="#ebedf0"/>
<rect x="34" y="48" width="10" height="10" rx="2" fill="#ebedf0"/>
<rect x="34" y="60" width="10" height="10" rx="2" fill="#ebedf0"/>
<rect x="34" y="72" width="10" height="10" rx="2" fill="#ebedf0"/>
<rect x="34" y="84" width="10" height="10" rx="2" fill="#ebedf0"/>
<rect x="34" y="96" width="10" height="10" rx="2" fill="#ebedf0"/>
<rect x="46" y="24" width="10" height="10" rx="2" fill="#ebedf0"/>
<rect x="46" y="36" width="10" height="10" rx="2" fill="#ebedf0"/>
<rect x="46" y="48" width="10" height="10" rx="2" fill="#ebedf0"/>
<rect x="46" y="60" width="10" height="10" rx="2" fill="#ebedf0"/>
<rect x="46" y="72" width="10" height="10" rx="2" fill="#ebedf0"/>
<rect x="46" y="84" width="10" height="10" rx="2" fill="#ebedf0"/>
<rect x="46" y="96" width="10" height="10" rx="2" fill="#ebedf0"/>
<rect x="58" y="24" width="10" height="10" rx="2" fill="#ebedf0"/>
<rect x="58" y="36" width="10" height="10" rx="2" fill="#ebedf0"/>
<rect x="58" y="48" width="10" height="10" rx="2" fill="#ebedf0"/>
<rect x="58" y="60" width="10" height="10" rx="2" fill="#ebedf0"/>
<rect x="58" y="72" width="10" height="10" rx="2" fill="#ebedf0"/>
<rect x="58" y="84" width="10" height="10" rx="2" fill="#ebedf0"/>
<rect x="58" y="96" width="10" height="10" rx="2" fill="#ebedf0"/>
<rect x="70" y="24" width="10" height="10" rx="2" fill="#ebedf0"/>
<rect x="70" y="36" width="10" height="10" rx="2" fill="#ebedf0"/>
<rect x="70" y="48" width="10" height="10" rx="2" fill="#ebedf0"/>
<rect x="70" y="60" width="10" height="10" rx="2" fill="#ebedf0"/>
<rect x="70" y="72" width="10" height="10" rx="2" fill="#ebedf0"/>
<rect x="70" y="84" width="10" height="10" rx="2" fill="#ebedf0"/>
<rect x="70" y="96" width="10" height="10" rx="2" fill="#ebedf0"/>
<rect x="82" y="24" width="10" height="10" rx="2" fill="#ebedf0"/>
<rect x="82" y="36" width="10" height="10" rx="2" fill="#ebedf0"/>
<rect x="82" y="48" width="10" height="10" rx="2" fill="#ebedf0"/>
<rect x="82" y="60" width="10" height="10" rx="2" fill="#ebedf0"/>
<rect x="82" y="72" width="10" height="10" rx="2" fill="#ebedf0"/>
<rect x="82" y="84" width="10" height="10" rx="2" fill="#ebedf0"/>
<rect x="82" y="96" width="10" height="10" rx="2" fill="#ebedf0"/>
<rect x="94" y="24" width="10" height="10" rx="2" fill="#ebedf0"/>
<rect x="94" y="36" width="10" height="10" rx="2" fill="#ebedf0"/>
<rect x="94" y="48" width="10" height="10" rx="2" fill="#ebedf0"/>
<rect x="94" y="60" width="10" height="10" rx="2" fill="#ebedf0"/>
<rect x="94" y="72" width="10" height="10" rx="2" fill="#ebedf0"/>
<rect x="94" y="84" width="10" height="10" rx="2" fill="#ebedf0"/>
<rect x="94" y="96" width="10" height="10" rx="2" fill="#ebedf0"/>
<rect x="106" y="24" width="10" height="10" rx="2" fill="#ebedf0"/>
<rect x="106" y="36" width="10" height="10" rx="2" fill="#ebedf0"/>
<rect x="106" y="48" width="10" height="10" rx="2" fill="#ebedf0"/>
<rect x="106" y="60" width="10" height="10" rx="2" fill="#ebedf0"/>
<rect x="106" y="72" width="10" height="10" rx="2" fill="#ebedf0"/>
<rect x="106" y="84" width="10" height="10" rx="2" fill="#ebedf0"/>
<rect x="106" y="96" width="10" height="10" rx="2" fill="#ebedf0"/>
<rect x="118" y="24" width="10" height="10" rx="2" fill="#ebedf0"/>
<rect x="118" y="36" width="10" height="10" rx="2" fill="#ebedf0"/>
<rect x="118" y="48" width="10" height="10" rx="2" fill="#ebedf0"/>
<rect x="118" y="60" width="10" height="10" rx="2" fill="#ebedf0"/>
<rect x="118" y="72" width="10" height="10" rx="2" fill="#ebedf0"/>
<rect x="118" y="84" width="10" height="10" rx="2" fill="#ebedf0"/>
<rect x="118" y="96" width="10" height="10" rx="2" fill="#ebedf0"/>
<rect x="130" y="24" width="10" height="10" rx="2" fill="#ebedf0"/>
<rect x="130" y="36" width="10" height="10" rx="2" fill="#ebedf0"/>
<rect x="130" y="48" width="10" height="10" rx="2" fill="#ebedf0"/>
<rect x="130" y="60" width="10" height="10" rx="2" fill="#ebedf0"/>
<rect x="130" y="72" width="10" height="10" rx="2" fill="#ebedf0"/>
<rect x="130" y="84" width="10" height="10" rx="2" fill="#ebedf0"/>
<rect x="130" y="96" width="10" height="10" rx="2" fill="#ebedf0"/>
<rect x="142" y="24" width="10" height="10" rx="2" fill="#ebedf0"/>
<rect x="142" y="36" width="10" height="10" rx="2" fill="#ebedf0"/>
<rect x="142" y="48" width="10" height="10" rx="2" fill="#ebedf0"/>
<rect x="142" y="60" width="10" height="10" rx="2" fill="#ebedf0"/>
<rect x="142" y="72" width="10" height="10" rx="2" fill="#ebedf0"/>
<rect x="142" y="84" width="10" height="10" rx="2" fill="#ebedf0"/>
<rect x="142" y="96" width="10" height="10" rx="2" fill="#ebedf0"/>
<rect x="154" y="24" width="10" height="10" rx="2" fill="#ebedf0"/>
<rect x="154" y="36" width="10" height="10" rx="2" fill="#ebedf0"/>
<rect x="154" y="48" width="10" height="10" rx="2" fill="#ebedf0"/>
<rect x="154" y="60" width="10" height="10" rx="2" fill="#ebedf0"/>
<rect x="154" y="72" width="10" height="10" rx="2" fill="#ebedf0"/>
<rect x="154" y="84" width="10" height="10" rx="2" fill="#ebedf0"/>
<rect x="154" y="96" width="10" height="10" rx="2" fill="#ebedf0"/>
<rect x="166" y="24" width="10" height="10" rx="2" fill="#ebedf0"/>
<rect x="166" y="36" width="10" height="10" rx="2" fill="#ebedf0"/>
<rect x="166" y="48" width="10" height="10" rx="2" fill="#ebedf0"/>
<rect x="166" y="60" width="10" height="10" rx="2" fill="#ebedf0"/>
<rect x="166" y="72" width="10" height="10" rx="2" fill="#ebedf0"/>
<rect x="166" y="84" width="10" height="10" rx="2" fill="#ebedf0"/>
<rect x="166" y="96" width="10" height="10" rx="2" fill="#ebedf0"/>
<rect x="178" y="24" width="10" height="10" rx="2" fill="#ebedf0"/>
<rect x="178" y="36" width="10" height="10" rx="2" fill="#ebedf0"/>
<rect x="178" y="48" width="10" height="10" rx="2" fill="#ebedf0"/>
<rect x="178" y="60" width="10" height="10" rx="2" fill="#ebedf0"/>
<rect x="178" y="72" width="10" height="10" rx="2" fill="#ebedf0"/>
<rect x="178" y="84" width="10" height="10" rx="2" fill="#ebedf0"/>
<rect x="178" y="96" width="10" height="10" rx="2" fill="#ebedf0"/>
<rect x="190" y="24" width="10" height="10" rx="2" fill="#ebedf0"/>
<rect x="190" y="36" width="10" height="10" rx="2" fill="#ebedf0"/>
<rect x="190" y="48" width="10" height="10" rx="2" fill="#ebedf0"/>
<rect x="190" y="60" width="10" height="10" rx="2" fill="#ebedf0"/>
<rect x="190" y="72" width="10" height="10" rx="2" fill="#ebedf0"/>
<rect x="190" y="84" width="10" height="10" rx="2" fill="#ebedf0"/>
<rect x="190" y="96" width="10" height="10" rx="2" fill="#ebedf0"/>
<rect x="202" y="24" width="10" height="10" rx="2" fill="#ebedf0"/>
<rect x="202" y="36" width="10" height="10" rx="2" fill="#ebedf0"/>
<rect x="202" y="48" width="10" height="10" rx="2" fill="#ebedf0"/>
<rect x="202" y="60" width="10" height="10" rx="2" fill="#ebedf0"/>
<rect x="202" y="72" width="10" height="10" rx="2" fill="#ebedf0"/>
<rect x="202" y="84" width="10" height="10" rx="2" fill="#ebedf0"/>
<rect x="202" y="96" width="10" height="10" rx="2" fill="#ebedf0"/>
<rect x="214" y="24" width="10" height="10" rx="2" fill="#ebedf0"/>
<rect x="214" y="36" width="10" height="10" rx="2" fill="#ebedf0"/>
<rect x="214" y="48" width="10" height="10" rx="2" fill="#ebedf0"/>
<rect x="214" y="60" width="10" height="10" rx="2" fill="#ebedf0"/>
<rect x="214" y="72" width="10" height="10" rx="2" fill="#ebedf0"/>
<rect x="214" y="84" width="10" height="10" rx="2" fill="#ebedf0"/>
<rect x="214" y="96" width="10" height="10" rx="2" fill="#ebedf0"/>
<rect x="226" y="24" width="10" height="10" rx="2" fill="#ebedf0"/>
<rect x="226" y="36" width="10" height="10" rx="2" fill="#ebedf0"/>
<rect x="226" y="48" width="10" height="10" rx="2" fill="#ebedf0"/>
<rect x="226" y="60" width="10" height="10" rx="2" fill="#ebedf0"/>
<rect x="226" y="72" width="10" height="10" rx="2" fill="#ebedf0"/>
<rect x="226" y="84" width="10" height="10" rx="2" fill="#ebedf0"/>
<rect x="226" y="96" width="10" height="10" rx="2" fill="#ebedf0"/>
<rect x="238" y="24" width="10" height="10" rx="2" fill="#ebedf0"/>
<rect x="238" y="36" width="10" height="10" rx="2" fill="#ebedf0"/>
<rect x="238" y="48" width="10" height="10" rx="2" fill="#ebedf0"/>
<rect x="238" y="60" width="10" height="10" rx="2" fill="#ebedf0"/>
<rect x="238" y="72" width="10" height="10" rx="2" fill="#ebedf0"/>
<rect x="238" y="84" width="10" height="10" rx="2" fill="#ebedf0"/>
<rect x="238" y="96" width="10" height="10" rx="2" fill="#ebedf0"/>
<rect x="250" y="24" width="10" height="10" rx="2" fill="#ebedf0"/>
<rect x="250" y="36" width="10" height="10" rx="2" fill="#ebedf0"/>
<rect x="250" y="48" width="10" height="10" rx="2" fill="#ebedf0"/>
<rect x="250" y="60" width="10" height="10" rx="2" fill="#ebedf0"/>
<rect x="250" y="72" width="10" height="10" rx="2" fill="#ebedf0"/>
<rect x="250" y="84" width="10" height="10" rx="2" fill="#ebedf0"/>
<rect x="250" y="96" width="10" height="10" rx="2" fill="#ebedf0"/>
<rect x="262" y="24" width="10" height="10" rx="2" fill="#ebedf0"/>
<rect x="262" y="36" width="10" height="10" rx="2" fill="#ebedf0"/>
<rect x="262" y="48" width="10" height="10" rx="2" fill="#ebedf0"/>
<rect x="262" y="60" width="10" height="10" rx="2" fill="#ebedf0"/>
<rect x="262" y="72" width="10" height="10" rx="2" fill="#ebedf0"/>
<rect x="262" y="84" width="10" height="10" rx="2" fill="#ebedf0"/>
<rect x="262" y="96" width="10" height="10" rx="2" fill="#ebedf0"/>
<rect x="274" y="24" width="10" height="10" rx="2" fill="#ebedf0"/>
<rect x="274" y="36" width="10" height="10" rx="2" fill="#ebedf0"/>
<rect x="274" y="48" width="10" height="10" rx="2" fill="#ebedf0"/>
<rect x="274" y="60" width="10" height="10" rx="2" fill="#ebedf0"/>
<rect x="274" y="72" width="10" height="10" rx="2" fill="#ebedf0"/>
<rect x="274" y="84" width="10" height="10" rx="2" fill="#ebedf0"/>
<rect x="274" y="96" width="10" height="10" rx="2" fill="#ebedf0"/>
<rect x="286" y="24" width="10" height="10" rx="2" fill="#ebedf0"/>
<rect x="286" y="36" width="10" height="10" rx="2" fill="#ebedf0"/>
<rect x="286" y="48" width="10" height="10" rx="2" fill="#ebedf0"/>
<rect x="286" y="60" width="10" height="10" rx="2" fill="#ebedf0"/>
<rect x="286" y="72" width="10" height="10" rx="2" fill="#ebedf0"/>
<rect x="286" y="84" width="10" height="10" rx="2" fill="#ebedf0"/>
<rect x="286" y="96" width="10" height="10" rx="2" fill="#ebedf0"/>
<rect x="298" y="24" width="10" height="10" rx="2" fill="#ebedf0"/>
<rect x="298" y="36" width="10" height="10" rx="2" fill="#ebedf0"/>
<rect x="298" y="48" width="10" height="10" rx="2" fill="#ebedf0"/>
<rect x="298" y="60" width="10" height="10" rx="2" fill="#ebedf0"/>
<rect x="298" y="72" width="10" height="10" rx="2" fill="#ebedf0"/>
<rect x="298" y="84" width="10" height="10" rx="2" fill="#ebedf0"/>
<rect x="298" y="96" width="10" height="10" rx="2" fill="#ebedf0"/>
<rect x="310" y="24" width="10" height="10" rx="2" fill="#ebedf0"/>
<rect x="310" y="36" width="10" height="10" rx="2" fill="#ebedf0"/>
<rect x="310" y="48" width="10" height="10" rx="2" fill="#ebedf0"/>
<rect x="310" y="60" width="10" height="10" rx="2" fill="#ebedf0"/>
<rect x="310" y="72" width="10" height="10" rx="2" fill="#ebedf0"/>
<rect x="310" y="84" width="10" height="10" rx="2" fill="#ebedf0"/>
<rect x="310" y="96" width="10" height="10" rx="2" fill="#ebedf0"/>
<rect x="322" y="24" width="10" height="10" rx="2" fill="#ebedf0"/>
<rect x="322" y="36" width="10" height="10" rx="2" fill="#ebedf0"/>
<rect x="322" y="48" width="10" height="10" rx="2" fill="#ebedf0"/>
<rect x="322" y="60" width="10" height="10" rx="2" fill="#ebedf0"/>
<rect x="322" y="72" width="10" height="10" rx="2" fill="#ebedf0"/>
<rect x="322" y="84" width="10" height="10" rx="2" fill="#ebedf0"/>
<rect x="322" y="96" width="10" height="10" rx="2" fill="#ebedf0"/>
<rect x="334" y="24" width="10" height="10" rx="2" fill="#ebedf0"/>
<rect x="334" y="36" width="10" height="10" rx="2" fill="#ebedf0"/>
<rect x="334" y="48" width="10" height="10" rx="2" fill="#ebedf0"/>
<rect x="334" y="60" width="10" height="10" rx="2" fill="#ebedf0"/>
<rect x="334" y="72" width="10" height="10" rx="2" fill="#ebedf0"/>
<rect x="334" y="84" width="10" height="10" rx="2" fill="#ebedf0"/>
<rect x="334" y="96" width="10" height="10" rx="2" fill="#ebedf0"/>
<rect x="346" y="24" width="10" height="10" rx="2" fill="#ebedf0"/>
<rect x="346" y="36" width="10" height="10" rx="2" fill="#ebedf0"/>
<rect x="346" y="48" width="10" height="10" rx="2" fill="#ebedf0"/>
<rect x="346" y="60" width="10" height="10" rx="2" fill="#ebedf0"/>
<rect x="346" y="72" width="10" height="10" rx="2" fill="#ebedf0"/>
<rect x="346" y="84" width="10" height="10" rx="2" fill="#ebedf0"/>
<rect x="346" y="96" width="10" height="10" rx="2" fill="#ebedf0"/>
<rect x="358" y="24" width="10" height="10" rx="2" fill="#ebedf0"/>
<rect x="358" y="36" width="10" height="10" rx="2" fill="#ebedf0"/>
<rect x="358" y="48" width="10" height="10" rx="2" fill="#ebedf0"/>
<rect x="358" y="60" width="10" height="10" rx="2" fill="#ebedf0"/>
<rect x="358" y="72" width="10" height="10" rx="2" fill="#ebedf0"/>
<rect x="358" y="84" width="10" height="10" rx="2" fill="#ebedf0"/>
<rect x="358" y="96" width="10" height="10" rx="2" fill="#ebedf0"/>
<rect x="370" y="24" width="10" height="10" rx="2" fill="#ebedf0"/>
<rect x="370" y="36" width="10" height="10" rx="2" fill="#ebedf0"/>
<rect x="370" y="48" width="10" height="10" rx="2" fill="#ebedf0"/>
<rect x="370" y="60" width="10" height="10" rx="2" fill="#ebedf0"/>
<rect x="370" y="72" width="10" height="10" rx="2" fill="#ebedf0"/>
<rect x="370" y="84" width="10" height="10" rx="2" fill="#ebedf0"/>
<rect x="370" y="96" width="10" height="10" rx="2" fill="#ebedf0"/>
<rect x="382" y="24" width="10" height="10" rx="2" fill="#ebedf0"/>
<rect x="382" y="36" width="10" height="10" rx="2" fill="#ebedf0"/>
<rect x="382" y="48" width="10" height="10" rx="2" fill="#ebedf0"/>
<rect x="382" y="60" width="10" height="10" rx="2" fill="#ebedf0"/>
<rect x="382" y="72" width="10" height="10" rx="2" fill="#ebedf0"/>
<rect x="382" y="84" width="10" height="10" rx="2" fill="#ebedf0"/>
<rect x="382" y="96" width="10" height="10" rx="2" fill="#ebedf0"/>
<rect x="394" y="24" width="10" height="10" rx="2" fill="#ebedf0"/>
<rect x="394" y="36" width="10" height="10" rx="2" fill="#ebedf0"/>
<rect x="394" y="48" width="10" height="10" rx="2" fill="#ebedf0"/>
<rect x="394" y="60" width="10" height="10" rx="2" fill="#ebedf0"/>
<rect x="394" y="72" width="10" height="10" rx="2" fill="#ebedf0"/>
<rect x="394" y="84" width="10" height="10" rx="2" fill="#ebedf0"/>
<rect x="394" y="96" width="10" height="10" rx="2" fill="#ebedf0"/>
<rect x="406" y="24" width="10" height="10" rx="2" fill="#ebedf0"/>
<rect x="406" y="36" width="10" height="10" rx="2" fill="#ebedf0"/>
<rect x="406" y="48" width="10" height="10" rx="2" fill="#ebedf0"/>
<rect x="406" y="60" width="10" height="10" rx="2" fill="#ebedf0"/>
<rect x="406" y="72" width="10" height="10" rx="2" fill="#ebedf0"/>
<rect x="406" y="84" width="10" height="10" rx="2" fill="#ebedf0"/>
<rect x="406" y="96" width="10" height="10" rx="2" fill="#ebedf0"/>
<rect x="418" y="24" width="10" height="10" rx="2" fill="#ebedf0"/>
<rect x="418" y="36" width="10" height="10" rx="2" fill="#ebedf0"/>
<rect x="418" y="48" width="10" height="10" rx="2" fill="#ebedf0"/>
<rect x="418" y="60" width="10" height="10" rx="2" fill="#ebedf0"/>
<rect x="418" y="72" width="10" height="10" rx="2" fill="#ebedf0"/>
<rect x="418" y="84" width="10" height="10" rx="2" fill="#ebedf0"/>
<rect x="418" y="96" width="10" height="10" rx="2" fill="#ebedf0"/>
<rect x="430" y="24" width="10" height="10" rx="2" fill="#ebedf0"/>
<rect x="430" y="36" width="10" height="10" rx="2" fill="#ebedf0"/>
<rect x="430" y="48" width="10" height="10" rx="2" fill="#ebedf0"/>
<rect x="430" y="60" width="10" height="10" rx="2" fill="#ebedf0"/>
<rect x="430" y="72" width="10" height="10" rx="2" fill="#ebedf0"/>
<rect x="430" y="84" width="10" height="10" rx="2" fill="#ebedf0"/>
<rect x="430" y="96" width="10" height="10" rx="2" fill="#ebedf0"/>
<rect x="442" y="24" width="10" height="10" rx="2" fill="#ebedf0"/>
<rect x="442" y="36" width="10" height="10" rx="2" fill="#ebedf0"/>
<rect x="442" y="48" width="10" height="10" rx="2" fill="#ebedf0"/>
<rect x="442" y="60" width="10" height="10" rx="2" fill="#ebedf0"/>
<rect x="442" y="72" width="10" height="10" rx="2" fill="#ebedf0"/>
<rect x="442" y="84" width="10" height="10" rx="2" fill="#ebedf0"/>
<rect x="442" y="96" width="10" height="10" rx="2" fill="#ebedf0"/>
<rect x="454" y="24" width="10" height="10" rx="2" fill="#ebedf0"/>
<rect x="454" y="36" width="10" height="10" rx="2" fill="#ebedf0"/>
<rect x="454" y="48" width="10" height="10" rx="2" fill="#ebedf0"/>
<rect x="454" y="60" width="10" height="10" rx="2" fill="#ebedf0"/>
<rect x="454" y="72" width="10" height="10" rx="2" fill="#ebedf0"/>
<rect x="454" y="84" width="10" height="10" rx="2" fill="#ebedf0"/>
<rect x="454" y="96" width="10" height="10" rx="2" fill="#ebedf0"/>
<rect x="466" y="24" width="10" height="10" rx="2" fill="#ebedf0"/>
<rect x="466" y="36" width="10" height="10" rx="2" fill="#ebedf0"/>
<rect x="466" y="48" width="10" height="10" rx="2" fill="#ebedf0"/>
<rect x="466" y="60" width="10" height="10" rx="2" fill="#ebedf0"/>
<rect x="466" y="72" width="10" height="10" rx="2" fill="#ebedf0"/>
<rect x="466" y="84" width="10" height="10" rx="2" fill="#ebedf0"/>
<rect x="466" y="96" width="10" height="10" rx="2" fill="#ebedf0"/>
<rect x="478" y="24" width="10" height="10" rx="2" fill="#ebedf0"/>
<rect x="478" y="36" width="10" height="10" rx="2" fill="#ebedf0"/>
<rect x="478" y="48" width="10" height="10" rx="2" fill="#ebedf0"/>
<rect x="478" y="60" width="10" height="10" rx="2" fill="#ebedf0"/>
<rect x="478" y="72" width="10" height="10" rx="2" fill="#ebedf0"/>
<rect x="478" y="84" width="10" height="10" rx="2" fill="#ebedf0"/>
<rect x="478" y="96" width="10" height="10" rx="2" fill="#ebedf0"/>
<rect x="490" y="24" width="10" height="10" rx="2" fill="#ebedf0"/>
<rect x="490" y="36" width="10" height="10" rx="2" fill="#ebedf0"/>
<rect x="490" y="48" width="10" height="10" rx="2" fill="#ebedf0"/>
<rect x="490" y="60" width="10" height="10" rx="2" fill="#ebedf0"/>
<rect x="490" y="72" width="10" height="10" rx="2" fill="#ebedf0"/>
<rect x="490" y="84" width="10" height="10" rx="2" fill="#ebedf0"/>
<rect x="490" y="96" width="10" height="10" rx="2" fill="#ebedf0"/>
<rect x="502" y="24" width="10" height="10" rx="2" fill="#ebedf0"/>
<rect x="502" y="36" width="10" height="10" rx="2" fill="#ebedf0"/>
<rect x="502" y="48" width="10" height="10" rx="2" fill="#ebedf0"/>
<rect x="502" y="60" width="10" height="10" rx="2" fill="#ebedf0"/>
<rect x="502" y="72" width="10" height="10" rx="2" fill="#ebedf0"/>
<rect x="502" y="84" width="10" height="10" rx="2" fill="#ebedf0"/>
<rect x="502" y="96" width="10" height="10" rx="2" fill="#ebedf0"/>
<rect x="514" y="24" width="10" height="10" rx="2" fill="#ebedf0"/>
<rect x="514" y="36" width="10" height="10" rx="2" fill="#ebedf0"/>
<rect x="514" y="48" width="10" height="10" rx="2" fill="#ebedf0"/>
<rect x="514" y="60" width="10" height="10" rx="2" fill="#ebedf0"/>
<rect x="514" y="72" width="10" height="10" rx="2" fill="#ebedf0"/>
<rect x="514" y="84" width="10" height="10" rx="2" fill="#ebedf0"/>
<rect x="514" y="96" width="10" height="10" rx="2" fill="#ebedf0"/>
<rect x="526" y="24" width="10" height="10" rx="2" fill="#ebedf0"/>
<rect x="526" y="36" width="10" height="10" rx="2" fill="#ebedf0"/>
<rect x="526" y="48" width="10" height="10" rx="2" fill="#ebedf0"/>
<rect x="526" y="60" width="10" height="10" rx="2" fill="#ebedf0"/>
<rect x="526" y="72" width="10" height="10" rx="2" fill="#ebedf0"/>
<rect x="526" y="84" width="10" height="10" rx="2" fill="#ebedf0"/>
<rect x="526" y="96" width="10" height="10" rx="2" fill="#ebedf0"/>
<rect x="538" y="24" width="10" height="10" rx="2" fill="#ebedf0"/>
<rect x="538" y="36" width="10" height="10" rx="2" fill="#ebedf0"/>
<rect x="538" y="48" width="10" height="10" rx="2" fill="#ebedf0"/>
<rect x="538" y="60" width="10" height="10" rx="2" fill="#ebedf0"/>
<rect x="538" y="72" width="10" height="10" rx="2" fill="#ebedf0"/>
<rect x="538" y="84" width="10" height="10" rx="2" fill="#ebedf0"/>
<rect x="538" y="96" width="10" height="10" rx="2" fill="#ebedf0"/>
<rect x="550" y="24" width="10" height="10" rx="2" fill="#ebedf0"/>
<rect x="550" y="36" width="10" height="10" rx="2" fill="#ebedf0"/>
<rect x="550" y="48" width="10" height="10" rx="2" fill="#ebedf0"/>
<rect x="550" y="60" width="10" height="10" rx="2" fill="#ebedf0"/>
<rect x="550" y="72" width="10" height="10" rx="2" fill="#ebedf0"/>
<rect x="550" y="84" width="10" height="10" rx="2" fill="#ebedf0"/>
<rect x="550" y="96" width="10" height="10" rx="2" fill="#ebedf0"/>
<rect x="562" y="24" width="10" height="10" rx="2" fill="#ebedf0"/>
<rect x="562" y="36" width="10" height="10" rx="2" fill="#ebedf0"/>
<rect x="562" y="48" width="10" height="10" rx="2" fill="#ebedf0"/>
<rect x="562" y="60" width="10" height="10" rx="2" fill="#ebedf0"/>
<rect x="562" y="72" width="10" height="10" rx="2" fill="#ebedf0"/>
<rect x="562" y="84" width="10" height="10" rx="2" fill="#ebedf0"/>
<rect x="562" y="96" width="10" height="10" rx="2" fill="#ebedf0"/>
<rect x="574" y="24" width="10" height="10" rx="2" fill="#ebedf0"/>
<rect x="574" y="36" width="10" height="10" rx="2" fill="#ebedf0"/>
<rect x="574" y="48" width="10" height="10" rx="2" fill="#ebedf0"/>
<rect x="574" y="60" width="10" height="10" rx="2" fill="#ebedf0"/>
<rect x="574" y="72" width="10" height="10" rx="2" fill="#ebedf0"/>
<rect x="574" y="84" width="10" height="10" rx="2" fill="#ebedf0"/>
<rect x="574" y="96" width="10" height="10" rx="2" fill="#216e39"><animate attributeName="fill" dur="14s" repeatCount="indefinite" keyTimes="0;0.8508;0.8608;1" values="#216e39;#216e39;#56d364;#216e39"/></rect>
<rect x="586" y="24" width="10" height="10" rx="2" fill="#30a14e"><animate attributeName="fill" dur="14s" repeatCount="indefinite" keyTimes="0;0.8692;0.8792;1" values="#30a14e;#30a14e;#56d364;#30a14e"/></rect>
<rect x="586" y="36" width="10" height="10" rx="2" fill="#9be9a8"><animate attributeName="fill" dur="14s" repeatCount="indefinite" keyTimes="0;0.8692;0.8792;1" values="#9be9a8;#9be9a8;#56d364;#9be9a8"/></rect>
<rect x="586" y="48" width="10" height="10" rx="2" fill="#9be9a8"><animate attributeName="fill" dur="14s" repeatCount="indefinite" keyTimes="0;0.8692;0.8792;1" values="#9be9a8;#9be9a8;#56d364;#9be9a8"/></rect>
<rect x="586" y="60" width="10" height="10" rx="2" fill="#40c463"><animate attributeName="fill" dur="14s" repeatCount="indefinite" keyTimes="0;0.8692;0.8792;1" values="#40c463;#40c463;#56d364;#40c463"/></rect>
<rect x="586" y="72" width="10" height="10" rx="2" fill="#ebedf0"/>
<rect x="586" y="84" width="10" height="10" rx="2" fill="#ebedf0"/>
<rect x="586" y="96" width="10" height="10" rx="2" fill="#ebedf0"/>
<rect x="598" y="24" width="10" height="10" rx="2" fill="#ebedf0"/>
<rect x="598" y="36" width="10" height="10" rx="2" fill="#30a14e"><animate attributeName="fill" dur="14s" repeatCount="indefinite" keyTimes="0;0.8877;0.8977;1" values="#30a14e;#30a14e;#56d364;#30a14e"/></rect>
<rect x="598" y="48" width="10" height="10" rx="2" fill="#30a14e"><animate attributeName="fill" dur="14s" repeatCount="indefinite" keyTimes="0;0.8877;0.8977;1" values="#30a14e;#30a14e;#56d364;#30a14e"/></rect>
<rect x="598" y="60" width="10" height="10" rx="2" fill="#40c463"><animate attributeName="fill" dur="14s" repeatCount="indefinite" keyTimes="0;0.8877;0.8977;1" values="#40c463;#40c463;#56d364;#40c463"/></rect>
<rect x="598" y="72" width="10" height="10" rx="2" fill="#ebedf0"/>
<rect x="598" y="84" width="10" height="10" rx="2" fill="#9be9a8"><animate attributeName="fill" dur="14s" repeatCount="indefinite" keyTimes="0;0.8877;0.8977;1" values="#9be9a8;#9be9a8;#56d364;#9be9a8"/></rect>
<rect x="598" y="96" width="10" height="10" rx="2" fill="#40c463"><animate attributeName="fill" dur="14s" repeatCount="indefinite" keyTimes="0;0.8877;0.8977;1" values="#40c463;#40c463;#56d364;#40c463"/></rect>
<rect x="610" y="24" width="10" height="10" rx="2" fill="#ebedf0"/>
<rect x="610" y="36" width="10" height="10" rx="2" fill="#ebedf0"/>
<rect x="610" y="48" width="10" height="10" rx="2" fill="#9be9a8"><animate attributeName="fill" dur="14s" repeatCount="indefinite" keyTimes="0;0.9062;0.9162;1" values="#9be9a8;#9be9a8;#56d364;#9be9a8"/></rect>
<rect x="610" y="60" width="10" height="10" rx="2" fill="#40c463"><animate attributeName="fill" dur="14s" repeatCount="indefinite" keyTimes="0;0.9062;0.9162;1" values="#40c463;#40c463;#56d364;#40c463"/></rect>
<rect x="610" y="72" width="10" height="10" rx="2" fill="#9be9a8"><animate attributeName="fill" dur="14s" repeatCount="indefinite" keyTimes="0;0.9062;0.9162;1" values="#9be9a8;#9be9a8;#56d364;#9be9a8"/></rect>
<rect x="610" y="84" width="10" height="10" rx="2" fill="#9be9a8"><animate attributeName="fill" dur="14s" repeatCount="indefinite" keyTimes="0;0.9062;0.9162;1" values="#9be9a8;#9be9a8;#56d364;#9be9a8"/></rect>
<rect x="610" y="96" width="10" height="10" rx="2" fill="#9be9a8"><animate attributeName="fill" dur="14s" repeatCount="indefinite" keyTimes="0;0.9062;0.9162;1" values="#9be9a8;#9be9a8;#56d364;#9be9a8"/></rect>
<rect x="622" y="24" width="10" height="10" rx="2" fill="#40c463"><animate attributeName="fill" dur="14s" repeatCount="indefinite" keyTimes="0;0.9246;0.9346;1" values="#40c463;#40c463;#56d364;#40c463"/></rect>
<rect x="622" y="36" width="10" height="10" rx="2" fill="#30a14e"><animate attributeName="fill" dur="14s" repeatCount="indefinite" keyTimes="0;0.9246;0.9346;1" values="#30a14e;#30a14e;#56d364;#30a14e"/></rect>
<rect x="622" y="48" width="10" height="10" rx="2" fill="#9be9a8"><animate attributeName="fill" dur="14s" repeatCount="indefinite" keyTimes="0;0.9246;0.9346;1" values="#9be9a8;#9be9a8;#56d364;#9be9a8"/></rect>
<rect x="622" y="60" width="10" height="10" rx="2" fill="#9be9a8"><animate attributeName="fill" dur="14s" repeatCount="indefinite" keyTimes="0;0.9246;0.9346;1" values="#9be9a8;#9be9a8;#56d364;#9be9a8"/></rect>
<rect x="622" y="72" width="10" height="10" rx="2" fill="#9be9a8"><animate attributeName="fill" dur="14s" repeatCount="indefinite" keyTimes="0;0.9246;0.9346;1" values="#9be9a8;#9be9a8;#56d364;#9be9a8"/></rect>
<rect x="622" y="84" width="10" height="10" rx="2" fill="#ebedf0"/>
<rect x="622" y="96" width="10" height="10" rx="2" fill="#40c463"><animate attributeName="fill" dur="14s" repeatCount="indefinite" keyTimes="0;0.9246;0.9346;1" values="#40c463;#40c463;#56d364;#40c463"/></rect>
<rect x="634" y="24" width="10" height="10" rx="2" fill="#30a14e"><animate attributeName="fill" dur="14s" repeatCount="indefinite" keyTimes="0;0.9431;0.9531;1" values="#30a14e;#30a14e;#56d364;#30a14e"/></rect>
<rect x="634" y="36" width="10" height="10" rx="2" fill="#40c463"><animate attributeName="fill" dur="14s" repeatCount="indefinite" keyTimes="0;0.9431;0.9531;1" values="#40c463;#40c463;#56d364;#40c463"/></rect>
<rect x="634" y="48" width="10" height="10" rx="2" fill="#9be9a8"><animate attributeName="fill" dur="14s" repeatCount="indefinite" keyTimes="0;0.9431;0.9531;1" values="#9be9a8;#9be9a8;#56d364;#9be9a8"/></rect>
<rect x="634" y="60" width="10" height="10" rx="2" fill="#30a14e"><animate attributeName="fill" dur="14s" repeatCount="indefinite" keyTimes="0;0.9431;0.9531;1" values="#30a14e;#30a14e;#56d364;#30a14e"/></rect>
<rect x="634" y="72" width="10" height="10" rx="2" fill="#216e39"><animate attributeName="fill" dur="14s" repeatCount="indefinite" keyTimes="0;0.9431;0.9531;1" values="#216e39;#216e39;#56d364;#216e39"/></rect>
<rect x="634" y="84" width="10" height="10" rx="2" fill="#ebedf0"/>
<rect x="634" y="96" width="10" height="10" rx="2" fill="#ebedf0"/>
<rect x="646" y="24" width="10" height="10" rx="2" fill="#9be9a8"><animate attributeName="fill" dur="14s" repeatCount="indefinite" keyTimes="0;0.9615;0.9715;1" values="#9be9a8;#9be9a8;#56d364;#9be9a8"/></rect>
<rect x="646" y="36" width="10" height="10" rx="2" fill="#40c463"><animate attributeName="fill" dur="14s" repeatCount="indefinite" keyTimes="0;0.9615;0.9715;1" values="#40c463;#40c463;#56d364;#40c463"/></rect>
<rect x="646" y="48" width="10" height="10" rx="2" fill="#40c463"><animate attributeName="fill" dur="14s" repeatCount="indefinite" keyTimes="0;0.9615;0.9715;1" values="#40c463;#40c463;#56d364;#40c463"/></rect>
<rect x="646" y="60" width="10" height="10" rx="2" fill="#40c463"><animate attributeName="fill" dur="14s" repeatCount="indefinite" keyTimes="0;0.9615;0.9715;1" values="#40c463;#40c463;#56d364;#40c463"/></rect>
<rect x="646" y="72" width="10" height="10" rx="2" fill="#40c463"><animate attributeName="fill" dur="14s" repeatCount="indefinite" keyTimes="0;0.9615;0.9715;1" values="#40c463;#40c463;#56d364;#40c463"/></rect>
<rect x="646" y="84" width="10" height="10" rx="2" fill="#9be9a8"><animate attributeName="fill" dur="14s" repeatCount="indefinite" keyTimes="0;0.9615;0.9715;1" values="#9be9a8;#9be9a8;#56d364;#9be9a8"/></rect>
<rect x="646" y="96" width="10" height="10" rx="2" fill="#9be9a8"><animate attributeName="fill" dur="14s" repeatCount="indefinite" keyTimes="0;0.9615;0.9715;1" values="#9be9a8;#9be9a8;#56d364;#9be9a8"/></rect>
<rect x="658" y="24" width="10" height="10" rx="2" fill="#40c463"><animate attributeName="fill" dur="14s" repeatCount="indefinite" keyTimes="0;0.98;0.99;1" values="#40c463;#40c463;#56d364;#40c463"/></rect>
<rect x="658" y="36" width="10" height="10" rx="2" fill="#9be9a8"><animate attributeName="fill" dur="14s" repeatCount="indefinite" keyTimes="0;0.98;0.99;1" values="#9be9a8;#9be9a8;#56d364;#9be9a8"/></rect>
<rect x="658" y="48" width="10" height="10" rx="2" fill="#9be9a8"><animate attributeName="fill" dur="14s" repeatCount="indefinite" keyTimes="0;0.98;0.99;1" values="#9be9a8;#9be9a8;#56d364;#9be9a8"/></rect>
<rect x="658" y="60" width="10" height="10" rx="2" fill="#9be9a8"><animate attributeName="fill" dur="14s" repeatCount="indefinite" keyTimes="0;0.98;0.99;1" values="#9be9a8;#9be9a8;#56d364;#9be9a8"/></rect>
<rect x="658" y="72" width="10" height="10" rx="2" fill="#40c463"><animate attributeName="fill" dur="14s" repeatCount="indefinite" keyTimes="0;0.98;0.99;1" values="#40c463;#40c463;#56d364;#40c463"/></rect>

<line x1="34" y1="138" x2="34" y2="212" stroke="#30363d"/><line x1="34" y1="212" x2="670" y2="212" stroke="#30363d"/><text x="34" y="132" font-family="Courier New, monospace" font-size="10" fill="#8b949e">loss (real, from contributions)</text><path d="M39,142 L51,142 L63,142 L75,142 L87,142 L99,142 L111,142 L123,142 L135,142 L147,142 L159,142 L171,142 L183,142 L195,142 L207,142 L219,142 L231,142 L243,142 L255,142 L267,142 L279,142 L291,142 L303,142 L315,142 L327,142 L339,142 L351,142 L363,142 L375,142 L387,142 L399,142 L411,142 L423,142 L435,142 L447,142 L459,142 L471,142 L483,142 L495,142 L507,142 L519,142 L531,142 L543,142 L555,142 L567,142 L579,147.4688 L591,154.0313 L603,166.0625 L615,170.4375 L627,179.1875 L639,195.5938 L651,206.5313 L663,212" fill="none" stroke="#58a6ff" stroke-width="2" opacity="0.9" stroke-dasharray="890.4" stroke-dashoffset="890.4"><animate attributeName="stroke-dashoffset" from="890.4" to="0" dur="14s" repeatCount="indefinite" calcMode="linear"/></path><circle r="3.2" fill="#79c0ff"><animateMotion path="M39,142 L51,142 L63,142 L75,142 L87,142 L99,142 L111,142 L123,142 L135,142 L147,142 L159,142 L171,142 L183,142 L195,142 L207,142 L219,142 L231,142 L243,142 L255,142 L267,142 L279,142 L291,142 L303,142 L315,142 L327,142 L339,142 L351,142 L363,142 L375,142 L387,142 L399,142 L411,142 L423,142 L435,142 L447,142 L459,142 L471,142 L483,142 L495,142 L507,142 L519,142 L531,142 L543,142 L555,142 L567,142 L579,147.4688 L591,154.0313 L603,166.0625 L615,170.4375 L627,179.1875 L639,195.5938 L651,206.5313 L663,212" dur="14s" repeatCount="indefinite"/></circle>
<rect x="3" y="3" width="698" height="236" rx="14" fill="none" stroke="#30363d" stroke-width="1.5"/>
</svg>